<svg xmlns="http://www.w3.org/2000/svg" viewBox="0 0 997.32 228.68"><defs><style>.cls-1{fill:#fff;}</style></defs><g id="Layer_2" data-name="Layer 2"><g id="Layer_1-2" data-name="Layer 1"><path class="cls-1" d="M27.24,5.35h0V96.11H0V32.58A27.23,27.23,0,0,1,27.24,5.35Z"/><rect class="cls-1" x="43.76" y="5.35" width="27.87" height="90.77"/><rect class="cls-1" x="88.15" y="5.35" width="27.86" height="90.77"/><rect class="cls-1" x="132.53" y="5.35" width="90.78" height="90.77"/><rect class="cls-1" x="132.53" y="112.63" width="90.78" height="27.86"/><rect class="cls-1" x="132.53" y="157.01" width="90.78" height="27.87"/><path class="cls-1" d="M132.53,201.41h90.78A27.27,27.27,0,0,1,196,228.68h-63.5Z"/><circle class="cls-1" cx="55.58" cy="173.09" r="55.58"/><path class="cls-1" d="M350.75,104.94,324.94,64.38H312.32v40.56h-12.9V6.67h31.9q11.07,0,18.72,3.75a26.15,26.15,0,0,1,11.49,10.36,29,29,0,0,1,3.83,14.81A28.23,28.23,0,0,1,359,54q-6.39,7.8-19.15,9.78l27.09,41.13ZM312.32,54.17h19c7.1,0,12.36-1.63,15.82-4.89s5.17-7.82,5.17-13.69-1.7-10.42-5.1-13.68S338.51,17,331.32,17h-19Z"/><path class="cls-1" d="M441.08,30.77A36,36,0,0,1,455.19,45a42.44,42.44,0,0,1,5.18,21.13A40.46,40.46,0,0,1,455,87a37.49,37.49,0,0,1-14.61,14.18,41.84,41.84,0,0,1-20.42,5,39,39,0,0,1-19.64-5A34.67,34.67,0,0,1,386.7,87.14a44,44,0,0,1-4.89-21.06A42.33,42.33,0,0,1,387,44.88a36.25,36.25,0,0,1,14.11-14.11,42.78,42.78,0,0,1,40,0Zm-33.32,9.08a24.31,24.31,0,0,0-9.29,10.07Q395,56.58,395,66.08a35.53,35.53,0,0,0,3.33,16,23.77,23.77,0,0,0,9,10.07A24,24,0,0,0,420,95.58,26.37,26.37,0,0,0,443.21,82,31.42,31.42,0,0,0,447,66.08,33.57,33.57,0,0,0,443.42,50a24.69,24.69,0,0,0-9.64-10.14,26.22,26.22,0,0,0-13.12-3.4A25,25,0,0,0,407.76,39.85Z"/><path class="cls-1" d="M526,30.49a30.62,30.62,0,0,1,11.27,12.2V27.09h13v77.85h-13V89.06A31,31,0,0,1,526,101.47a31.69,31.69,0,0,1-17.38,4.75A35.51,35.51,0,0,1,489.65,101a36.55,36.55,0,0,1-13.33-14.46,44.56,44.56,0,0,1-4.89-21.06,42.88,42.88,0,0,1,4.89-20.78,35.53,35.53,0,0,1,13.33-14,36.65,36.65,0,0,1,18.93-5A32,32,0,0,1,526,30.49Zm-28.08,9.93a25.2,25.2,0,0,0-9.65,9.85,30.71,30.71,0,0,0-3.61,15.25A32.27,32.27,0,0,0,488.23,81a26.76,26.76,0,0,0,9.65,10.43,24.38,24.38,0,0,0,13,3.69A25.46,25.46,0,0,0,524,91.61a25.84,25.84,0,0,0,9.64-10.14,31.51,31.51,0,0,0,3.62-15.39,31.47,31.47,0,0,0-3.62-15.38A25.84,25.84,0,0,0,524,40.56,25.46,25.46,0,0,0,510.85,37,25.92,25.92,0,0,0,497.88,40.42Z"/><path class="cls-1" d="M621,30.49a30.62,30.62,0,0,1,11.27,12.2V0h13V104.94h-13V89.06A31,31,0,0,1,621,101.47a31.66,31.66,0,0,1-17.37,4.75A35.46,35.46,0,0,1,584.67,101a36.58,36.58,0,0,1-13.34-14.46,44.56,44.56,0,0,1-4.89-21.06,42.88,42.88,0,0,1,4.89-20.78,35.55,35.55,0,0,1,13.34-14,36.59,36.59,0,0,1,18.93-5A32,32,0,0,1,621,30.49Zm-28.08,9.93a25.11,25.11,0,0,0-9.64,9.85,30.72,30.72,0,0,0-3.62,15.25A32.28,32.28,0,0,0,583.25,81a26.66,26.66,0,0,0,9.64,10.43,24.41,24.41,0,0,0,13,3.69A25.45,25.45,0,0,0,619,91.61a25.86,25.86,0,0,0,9.65-10.14,31.51,31.51,0,0,0,3.61-15.39,31.47,31.47,0,0,0-3.61-15.38A25.86,25.86,0,0,0,619,40.56,25.45,25.45,0,0,0,605.87,37,26,26,0,0,0,592.89,40.42Z"/><path class="cls-1" d="M769.51,6.67V17h-26v87.92h-12.9V17H704.71V6.67Z"/><path class="cls-1" d="M840.7,30.77A36,36,0,0,1,854.81,45,42.44,42.44,0,0,1,860,66.08,40.46,40.46,0,0,1,854.6,87,37.56,37.56,0,0,1,840,101.18a41.87,41.87,0,0,1-20.42,5,39,39,0,0,1-19.64-5,34.67,34.67,0,0,1-13.61-14.11,44,44,0,0,1-4.9-21.06,42.34,42.34,0,0,1,5.18-21.2,36.18,36.18,0,0,1,14.11-14.11,42.78,42.78,0,0,1,40,0Zm-33.33,9.08a24.29,24.29,0,0,0-9.28,10.07q-3.48,6.66-3.48,16.16a35.53,35.53,0,0,0,3.33,16,23.33,23.33,0,0,0,21.63,13.47A26.37,26.37,0,0,0,842.83,82a31.42,31.42,0,0,0,3.83-15.89A33.57,33.57,0,0,0,843,50a24.75,24.75,0,0,0-9.64-10.14,26.22,26.22,0,0,0-13.12-3.4A25.08,25.08,0,0,0,807.37,39.85Z"/><path class="cls-1" d="M968.11,30.49a30.58,30.58,0,0,1,11.28,12.2V27.09h13v77.85h-13V89.06a30.93,30.93,0,0,1-11.28,12.41,31.63,31.63,0,0,1-17.37,4.75A35.46,35.46,0,0,1,931.81,101a36.48,36.48,0,0,1-13.33-14.46,44.56,44.56,0,0,1-4.89-21.06,42.88,42.88,0,0,1,4.89-20.78,35.46,35.46,0,0,1,13.33-14,36.59,36.59,0,0,1,18.93-5A31.93,31.93,0,0,1,968.11,30.49ZM940,40.42a25.17,25.17,0,0,0-9.64,9.85,30.71,30.71,0,0,0-3.61,15.25A32.27,32.27,0,0,0,930.39,81,26.74,26.74,0,0,0,940,91.47a24.44,24.44,0,0,0,13,3.69,25.46,25.46,0,0,0,13.12-3.55,25.84,25.84,0,0,0,9.64-10.14,31.51,31.51,0,0,0,3.62-15.39,31.47,31.47,0,0,0-3.62-15.38,25.84,25.84,0,0,0-9.64-10.14A25.46,25.46,0,0,0,953,37,26,26,0,0,0,940,40.42Z"/><path class="cls-1" d="M399.87,134.08v92.14H381.39V168l-25.08,58.21H343l-25-57.95v57.95H299.42V134.08h20.72l29.57,68.25,29.57-68.25Z"/><rect class="cls-1" x="419.67" y="153.09" width="18.61" height="73.13"/><path class="cls-1" d="M476.7,128.54v97.68H458.08V128.54Z"/><path class="cls-1" d="M515.11,128.54v97.68H496.5V128.54Z"/><rect class="cls-1" x="534.91" y="153.09" width="18.61" height="73.13"/><path class="cls-1" d="M625.07,156.65a34.53,34.53,0,0,1,13.59,13.14,41.42,41.42,0,0,1,0,39.53A34.64,34.64,0,0,1,625,222.59a39.59,39.59,0,0,1-19.21,4.69,38.88,38.88,0,0,1-19-4.69,34.28,34.28,0,0,1-13.54-13.27,38.91,38.91,0,0,1-5-19.8,38.11,38.11,0,0,1,5-19.73,34.56,34.56,0,0,1,13.6-13.14,41.69,41.69,0,0,1,38.15,0Zm-32.48,16.77q-5.42,5.67-5.41,16.23a26,26,0,0,0,2.57,12.08,17.76,17.76,0,0,0,6.8,7.4,18.49,18.49,0,0,0,18.48-.07,18.69,18.69,0,0,0,7.07-7.46,24.62,24.62,0,0,0,2.7-11.95,25.36,25.36,0,0,0-2.64-12.07,18,18,0,0,0-6.93-7.4,18.56,18.56,0,0,0-9.3-2.44A17.73,17.73,0,0,0,592.59,173.42Z"/><path class="cls-1" d="M714.37,155.66a25.7,25.7,0,0,1,10.1,10.7,35.88,35.88,0,0,1,3.69,16.83v43H709.68V185.83q0-8.58-4.36-13.14t-11.88-4.55c-5,0-9,1.52-11.94,4.55s-4.42,7.42-4.42,13.14v40.39H658.46V153.09h18.62v11a23.1,23.1,0,0,1,9.3-8.91,28.24,28.24,0,0,1,13.4-3.11A29.16,29.16,0,0,1,714.37,155.66Z"/><path class="cls-1" d="M789.94,155.33a26.38,26.38,0,0,1,9.77,9.11V153.09h18.48v73.13H799.71V213.94a28.56,28.56,0,0,1-9.84,9.77,26.46,26.46,0,0,1-13.79,3.57,31.69,31.69,0,0,1-17.1-4.82,34.37,34.37,0,0,1-12.27-13.4,44,44,0,0,1,0-39A34,34,0,0,1,759,156.79a32,32,0,0,1,17.1-4.76A28.68,28.68,0,0,1,789.94,155.33Zm-19,15.32A19.24,19.24,0,0,0,763.8,178,22.81,22.81,0,0,0,761,189.52a23.53,23.53,0,0,0,2.77,11.69,19,19,0,0,0,7.19,7.45,18.52,18.52,0,0,0,9.31,2.51,18.75,18.75,0,0,0,9.44-2.51,19,19,0,0,0,7.2-7.39,25.74,25.74,0,0,0,0-23.23,19,19,0,0,0-7.2-7.39,18.85,18.85,0,0,0-9.44-2.51A18.62,18.62,0,0,0,771,170.65Z"/><rect class="cls-1" x="837.99" y="153.09" width="18.61" height="73.13"/><path class="cls-1" d="M903.92,155.73A21.82,21.82,0,0,1,916.4,152v19h-4.62q-8.32,0-12.54,4.16T895,189.52v36.7H876.4V153.09H895V166A27.39,27.39,0,0,1,903.92,155.73Z"/><path class="cls-1" d="M996.79,195.73H943.46a17.36,17.36,0,0,0,5.28,11.48,16.37,16.37,0,0,0,26-3.56h20.07a32.07,32.07,0,0,1-12.28,17q-9.1,6.6-22,6.6a36.71,36.71,0,0,1-18.61-4.69,33,33,0,0,1-12.81-13.2,44.89,44.89,0,0,1,0-39.67,32.64,32.64,0,0,1,12.87-13.07A37.83,37.83,0,0,1,960.75,152a38.75,38.75,0,0,1,18.81,4.49,32.92,32.92,0,0,1,13,12.74,38.16,38.16,0,0,1,4.75,19.34A45.46,45.46,0,0,1,996.79,195.73Zm-18.74-12a16,16,0,0,0-5.35-11.62,17.79,17.79,0,0,0-12.21-4.36,16.13,16.13,0,0,0-11.42,4.36,18.39,18.39,0,0,0-5.61,11.62Z"/><path class="cls-1" d="M444,137.46l-15-15-8.2,8.2h0l-2.13,2.13L414,137.46a2.94,2.94,0,0,0,0,4.16l4.86,4.86,2.08-2.08,8.05-8.05,3.39,3.39,1.26,1.26h0l2.13,2.13h0L437,144.4l2.08,2.08,4.86-4.85A3,3,0,0,0,444,137.46Z"/><path class="cls-1" d="M559.2,137.46l-15-15-8.21,8.2h0l-2.13,2.13-4.65,4.66a2.94,2.94,0,0,0,0,4.16l4.85,4.86,2.09-2.08,8-8.05,3.4,3.39,1.26,1.26h0l2.13,2.13h0l1.26,1.27,2.09,2.08,4.85-4.85A3,3,0,0,0,559.2,137.46Z"/><path class="cls-1" d="M862.28,137.46l-15-15-8.2,8.2h0L837,132.8l-4.65,4.66a2.94,2.94,0,0,0,0,4.16l4.85,4.86,2.08-2.08,8-8.05,3.4,3.39L852,141h0l2.13,2.13h0l1.26,1.27,2.09,2.08,4.85-4.85A3,3,0,0,0,862.28,137.46Z"/></g></g></svg>