<svg id="Layer_1" data-name="Layer 1" xmlns="http://www.w3.org/2000/svg" viewBox="0 0 1080 1080"><defs><style>.cls-1{fill:#fff;}</style></defs><rect width="1080" height="1080"/><path class="cls-1" d="M374.75,639.11l-37.56-62.53H326.84v62.53H295.13v-157h57.8q18.22,0,31,6.41t19.23,17.09a45.24,45.24,0,0,1,6.4,23.72,47.22,47.22,0,0,1-9,27.67q-9,12.83-28.34,17.54l40,64.55ZM326.84,552.3h26.09q11.93,0,18.22-6.19t6.3-16.76q0-10.56-6.3-16.75t-18.22-6.18H326.84Z"/><polygon class="cls-1" points="548.14 482.13 548.14 506.42 505.63 506.42 505.63 639.11 474.15 639.11 474.15 506.42 431.87 506.42 431.87 482.13 548.14 482.13"/><path class="cls-1" d="M743.58,482.13v157H712.09V539.93l-42.73,99.18H646.65l-42.51-98.74v98.74H572.43v-157h35.31L658.12,598.4l50.37-116.27Z"/><path class="cls-1" d="M784.87,487.68V440.89h-46.8a6.5,6.5,0,0,0-6.49,6.5v15.16H763.2v14.54h0v6.65h0v10.45h15.16A6.51,6.51,0,0,0,784.87,487.68Z"/></svg>