<svg id="Layer_1" data-name="Layer 1" xmlns="http://www.w3.org/2000/svg" viewBox="0 0 1920 1080"><defs><style>.cls-1{fill:#4ba3c3;}</style></defs><rect class="cls-1" width="1920" height="1080"/><path d="M488.58,431h0v90.76H461.34V458.24A27.24,27.24,0,0,1,488.58,431Z"/><rect x="505.1" y="431.01" width="27.87" height="90.77"/><rect x="549.49" y="431.01" width="27.86" height="90.77"/><rect x="593.87" y="431.01" width="90.78" height="90.77"/><rect x="593.87" y="538.29" width="90.78" height="27.86"/><rect x="593.87" y="582.67" width="90.78" height="27.87"/><path d="M593.87,627.07h90.78a27.27,27.27,0,0,1-27.27,27.27H593.87Z"/><circle cx="516.93" cy="598.76" r="55.58"/><path d="M812.09,530.6,786.28,490H773.66V530.6h-12.9V432.33h31.91q11.05,0,18.71,3.75a26.15,26.15,0,0,1,11.49,10.36,29,29,0,0,1,3.83,14.82,28.22,28.22,0,0,1-6.38,18.43q-6.39,7.8-19.15,9.79l27.09,41.12Zm-38.43-50.77h19q10.64,0,15.81-4.89t5.17-13.68q0-8.81-5.1-13.69t-15.88-4.89h-19Z"/><path d="M902.43,456.43a36.13,36.13,0,0,1,14.11,14.19,42.37,42.37,0,0,1,5.17,21.12,40.36,40.36,0,0,1-5.39,20.92,37.53,37.53,0,0,1-14.6,14.18,41.9,41.9,0,0,1-20.42,5,39,39,0,0,1-19.64-5A34.56,34.56,0,0,1,848,512.8a43.94,43.94,0,0,1-4.89-21.06,42.23,42.23,0,0,1,5.18-21.2,36.16,36.16,0,0,1,14.1-14.11,42.8,42.8,0,0,1,40,0Zm-33.33,9.08a24.37,24.37,0,0,0-9.29,10.07q-3.48,6.66-3.47,16.16a35.53,35.53,0,0,0,3.33,16,23.77,23.77,0,0,0,9,10.07,24.06,24.06,0,0,0,12.63,3.4,26.37,26.37,0,0,0,23.25-13.61,31.32,31.32,0,0,0,3.83-15.89,33.57,33.57,0,0,0-3.61-16.09,24.77,24.77,0,0,0-9.65-10.14,26.22,26.22,0,0,0-13.12-3.4A25.07,25.07,0,0,0,869.1,465.51Z"/><path d="M987.3,456.15a30.69,30.69,0,0,1,11.27,12.2v-15.6h13V530.6h-13V514.72a31,31,0,0,1-11.27,12.41,31.69,31.69,0,0,1-17.38,4.75A35.51,35.51,0,0,1,951,526.7a36.55,36.55,0,0,1-13.33-14.46,44.5,44.5,0,0,1-4.89-21.06,42.88,42.88,0,0,1,4.89-20.78,35.53,35.53,0,0,1,13.33-14,36.74,36.74,0,0,1,18.93-5A32,32,0,0,1,987.3,456.15Zm-28.08,9.93a25.11,25.11,0,0,0-9.64,9.85A30.64,30.64,0,0,0,946,491.18a32.23,32.23,0,0,0,3.62,15.53,26.7,26.7,0,0,0,9.64,10.42,24.4,24.4,0,0,0,13,3.69,25.36,25.36,0,0,0,13.12-3.55A25.93,25.93,0,0,0,995,507.13a34.59,34.59,0,0,0,0-30.77,25.93,25.93,0,0,0-9.65-10.14,25.46,25.46,0,0,0-13.12-3.55A26,26,0,0,0,959.22,466.08Z"/><path d="M1082.31,456.15a30.69,30.69,0,0,1,11.27,12.2V425.66h13.05V530.6h-13.05V514.72a31,31,0,0,1-11.27,12.41,31.66,31.66,0,0,1-17.37,4.75A35.46,35.46,0,0,1,1046,526.7a36.48,36.48,0,0,1-13.33-14.46,44.39,44.39,0,0,1-4.9-21.06,42.77,42.77,0,0,1,4.9-20.78,35.46,35.46,0,0,1,13.33-14,36.69,36.69,0,0,1,18.93-5A32,32,0,0,1,1082.31,456.15Zm-28.08,9.93a25.11,25.11,0,0,0-9.64,9.85,30.74,30.74,0,0,0-3.62,15.25,32.34,32.34,0,0,0,3.62,15.53,26.7,26.7,0,0,0,9.64,10.42,24.41,24.41,0,0,0,13,3.69,25.33,25.33,0,0,0,13.11-3.55,25.86,25.86,0,0,0,9.65-10.14,34.59,34.59,0,0,0,0-30.77,25.86,25.86,0,0,0-9.65-10.14,25.42,25.42,0,0,0-13.11-3.55A26,26,0,0,0,1054.23,466.08Z"/><path d="M1230.85,432.33v10.35H1204.9V530.6H1192V442.68h-26V432.33Z"/><path d="M1302,456.43a36,36,0,0,1,14.11,14.19,42.37,42.37,0,0,1,5.18,21.12,40.46,40.46,0,0,1-5.39,20.92,37.56,37.56,0,0,1-14.61,14.18,41.84,41.84,0,0,1-20.42,5,39,39,0,0,1-19.64-5,34.6,34.6,0,0,1-13.61-14.11,43.94,43.94,0,0,1-4.89-21.06,42.33,42.33,0,0,1,5.17-21.2,36.18,36.18,0,0,1,14.11-14.11,42.78,42.78,0,0,1,40,0Zm-33.32,9.08a24.31,24.31,0,0,0-9.29,10.07q-3.48,6.66-3.48,16.16a35.4,35.4,0,0,0,3.34,16,23.77,23.77,0,0,0,9,10.07,24,24,0,0,0,12.62,3.4,26.37,26.37,0,0,0,23.26-13.61,31.42,31.42,0,0,0,3.83-15.89,33.57,33.57,0,0,0-3.62-16.09,24.69,24.69,0,0,0-9.64-10.14,26.22,26.22,0,0,0-13.12-3.4A25,25,0,0,0,1268.72,465.51Z"/><path d="M1429.46,456.15a30.69,30.69,0,0,1,11.27,12.2v-15.6h13V530.6h-13V514.72a31,31,0,0,1-11.27,12.41,31.69,31.69,0,0,1-17.38,4.75,35.49,35.49,0,0,1-18.93-5.18,36.55,36.55,0,0,1-13.33-14.46,44.5,44.5,0,0,1-4.89-21.06,42.88,42.88,0,0,1,4.89-20.78,35.53,35.53,0,0,1,13.33-14,36.72,36.72,0,0,1,18.93-5A32,32,0,0,1,1429.46,456.15Zm-28.08,9.93a25.13,25.13,0,0,0-9.65,9.85,30.74,30.74,0,0,0-3.61,15.25,32.34,32.34,0,0,0,3.61,15.53,26.73,26.73,0,0,0,9.65,10.42,24.38,24.38,0,0,0,13,3.69,25.36,25.36,0,0,0,13.12-3.55,25.84,25.84,0,0,0,9.64-10.14,34.5,34.5,0,0,0,0-30.77,25.84,25.84,0,0,0-9.64-10.14,25.46,25.46,0,0,0-13.12-3.55A25.92,25.92,0,0,0,1401.38,466.08Z"/><path d="M861.22,559.74v92.14H842.73V593.67l-25.08,58.21H804.32l-25-58v58H760.76V559.74h20.72L811.05,628l29.57-68.25Z"/><rect x="881.01" y="578.75" width="18.61" height="73.13"/><path d="M938,554.2v97.68H919.43V554.2Z"/><path d="M976.45,554.2v97.68H957.84V554.2Z"/><rect x="996.25" y="578.75" width="18.61" height="73.13"/><path d="M1086.41,582.32A34.44,34.44,0,0,1,1100,595.45a41.42,41.42,0,0,1,0,39.53,34.58,34.58,0,0,1-13.66,13.27,39.55,39.55,0,0,1-19.2,4.69,38.92,38.92,0,0,1-19-4.69A34.25,34.25,0,0,1,1034.6,635a38.88,38.88,0,0,1-4.95-19.8,38.2,38.2,0,0,1,5-19.73,34.53,34.53,0,0,1,13.6-13.13,41.69,41.69,0,0,1,38.15,0Zm-32.48,16.76q-5.4,5.67-5.41,16.24a25.82,25.82,0,0,0,2.58,12.07,17.68,17.68,0,0,0,6.79,7.4,18.5,18.5,0,0,0,18.49-.07,18.73,18.73,0,0,0,7.06-7.46,24.61,24.61,0,0,0,2.7-11.94,25.37,25.37,0,0,0-2.64-12.08,18,18,0,0,0-6.93-7.4,18.56,18.56,0,0,0-9.3-2.44A17.73,17.73,0,0,0,1053.93,599.08Z"/><path d="M1175.71,581.32a25.64,25.64,0,0,1,10.1,10.7,35.91,35.91,0,0,1,3.69,16.83v43H1171V611.49q0-8.58-4.35-13.14t-11.88-4.55q-7.53,0-12,4.55t-4.42,13.14v40.39H1119.8V578.75h18.62v11a23.23,23.23,0,0,1,9.3-8.91,28.24,28.24,0,0,1,13.4-3.1A29.16,29.16,0,0,1,1175.71,581.32Z"/><path d="M1251.28,581a26.3,26.3,0,0,1,9.77,9.11V578.75h18.48v73.13h-18.48V639.61a28.62,28.62,0,0,1-9.84,9.76,26.46,26.46,0,0,1-13.79,3.57,31.69,31.69,0,0,1-17.1-4.82,34.44,34.44,0,0,1-12.27-13.4,44,44,0,0,1,0-39,34,34,0,0,1,12.27-13.26,32,32,0,0,1,17.1-4.75A28.67,28.67,0,0,1,1251.28,581Zm-18.94,15.32a19.19,19.19,0,0,0-7.2,7.32,22.81,22.81,0,0,0-2.77,11.55,23.53,23.53,0,0,0,2.77,11.69,19,19,0,0,0,7.2,7.46,18.57,18.57,0,0,0,9.3,2.5,18.84,18.84,0,0,0,9.44-2.5,19.14,19.14,0,0,0,7.2-7.4,25.74,25.74,0,0,0,0-23.23,19.11,19.11,0,0,0-7.2-7.39,18.85,18.85,0,0,0-9.44-2.51A18.58,18.58,0,0,0,1232.34,596.31Z"/><rect x="1299.33" y="578.75" width="18.61" height="73.13"/><path d="M1365.26,581.39a21.83,21.83,0,0,1,12.48-3.69v19h-4.62q-8.32,0-12.54,4.16t-4.23,14.32v36.7h-18.61V578.75h18.61v12.94A27.39,27.39,0,0,1,1365.26,581.39Z"/><path d="M1458.13,621.39H1404.8a17.36,17.36,0,0,0,5.28,11.48,16.43,16.43,0,0,0,11.75,4.36c3.7,0,6.64-.7,8.84-2.11a16.5,16.5,0,0,0,5.42-5.81h20.06a32.07,32.07,0,0,1-12.28,17q-9.11,6.6-22,6.6a36.71,36.71,0,0,1-18.61-4.69,33,33,0,0,1-12.81-13.2,44.89,44.89,0,0,1,0-39.67,32.55,32.55,0,0,1,12.87-13.06,37.83,37.83,0,0,1,18.81-4.62,38.74,38.74,0,0,1,18.81,4.48,33,33,0,0,1,13,12.74,38.16,38.16,0,0,1,4.75,19.34A45.46,45.46,0,0,1,1458.13,621.39Zm-18.74-12a16,16,0,0,0-5.35-11.62,17.84,17.84,0,0,0-12.21-4.36,16.17,16.17,0,0,0-11.42,4.36,18.49,18.49,0,0,0-5.61,11.62Z"/><path d="M905.31,563.12l-15-15-8.2,8.2h0L880,558.46l-4.66,4.66a2.94,2.94,0,0,0,0,4.16l4.86,4.86,2.08-2.08,8.05-8,3.39,3.39,1.27,1.26h0l2.13,2.14h0l1.26,1.26,2.08,2.08,4.86-4.85A3,3,0,0,0,905.31,563.12Z"/><path d="M1020.54,563.12l-15-15-8.21,8.2h0l-2.12,2.13-4.66,4.66a2.94,2.94,0,0,0,0,4.16l4.86,4.86,2.08-2.08,8-8,3.39,3.39,1.26,1.26h0l2.13,2.14h0l1.26,1.26,2.09,2.08,4.85-4.85A3,3,0,0,0,1020.54,563.12Z"/><path d="M1323.62,563.12l-15-15-8.21,8.2h0l-2.13,2.13-4.65,4.66a2.94,2.94,0,0,0,0,4.16l4.85,4.86,2.09-2.08,8-8,3.4,3.39,1.26,1.26h0l2.13,2.14h0l1.26,1.26,2.09,2.08,4.85-4.85A3,3,0,0,0,1323.62,563.12Z"/></svg>