<svg xmlns="http://www.w3.org/2000/svg" viewBox="0 0 489.74 198.21"><g id="Layer_2" data-name="Layer 2"><g id="Layer_1-2" data-name="Layer 1"><path d="M79.61,198.21,42.05,135.69H31.71v62.52H0v-157H57.8q18.21,0,31,6.41t19.22,17.09a45.22,45.22,0,0,1,6.41,23.73,47.29,47.29,0,0,1-9,27.67q-9,12.81-28.34,17.54l40,64.54ZM31.71,111.4H57.8q11.91,0,18.21-6.18t6.3-16.76q0-10.56-6.3-16.75T57.8,65.52H31.71Z"/><polygon points="253.01 41.23 253.01 65.52 210.5 65.52 210.5 198.21 179.02 198.21 179.02 65.52 136.74 65.52 136.74 41.23 253.01 41.23"/><path d="M448.45,41.23v157H417V99l-42.73,99.18H351.52L309,99.48v98.73H277.3v-157h35.31L363,157.51,413.36,41.23Z"/><path d="M489.74,46.79V0h-46.8a6.5,6.5,0,0,0-6.5,6.5V21.66h31.63V36.2h0v6.65h0V53.3h15.16A6.52,6.52,0,0,0,489.74,46.79Z"/></g></g></svg>