<svg id="Layer_1" data-name="Layer 1" xmlns="http://www.w3.org/2000/svg" viewBox="0 0 1080 1080"><defs><style>.cls-1{fill:#0d2188;}.cls-2{fill:#fff;}</style></defs><rect class="cls-1" width="1080" height="1080"/><path class="cls-2" d="M258.28,531.77l-24.44-38.4H221.9v38.4H209.68v-93h30.21q10.47,0,17.71,3.56a24.7,24.7,0,0,1,10.88,9.8,27.45,27.45,0,0,1,3.62,14,26.67,26.67,0,0,1-6,17.45q-6,7.4-18.12,9.27l25.64,38.93ZM221.9,483.71h18q10.06,0,15-4.63t4.9-13q0-8.31-4.83-12.95t-15-4.63h-18Z"/><path class="cls-2" d="M343.78,461.56A34.14,34.14,0,0,1,357.14,475a40.13,40.13,0,0,1,4.9,20,38.26,38.26,0,0,1-5.1,19.8,35.55,35.55,0,0,1-13.83,13.43A39.6,39.6,0,0,1,323.78,533a36.92,36.92,0,0,1-18.59-4.69,32.93,32.93,0,0,1-12.89-13.36A41.71,41.71,0,0,1,287.67,495a40,40,0,0,1,4.9-20.06,34.19,34.19,0,0,1,13.36-13.36,40.45,40.45,0,0,1,37.85,0Zm-31.54,8.59a23.06,23.06,0,0,0-8.79,9.53,32.69,32.69,0,0,0-3.29,15.3,33.62,33.62,0,0,0,3.15,15.17,22.4,22.4,0,0,0,8.53,9.53,22.73,22.73,0,0,0,11.94,3.23,25,25,0,0,0,22-12.89,29.77,29.77,0,0,0,3.62-15A31.8,31.8,0,0,0,346,479.75a23.42,23.42,0,0,0-9.13-9.6,24.79,24.79,0,0,0-12.42-3.22A23.71,23.71,0,0,0,312.24,470.15Z"/><path class="cls-2" d="M424.12,461.29a29,29,0,0,1,10.68,11.55V458.07h12.35v73.7H434.8v-15a29.35,29.35,0,0,1-10.68,11.75A29.86,29.86,0,0,1,407.68,533a33.55,33.55,0,0,1-17.92-4.9,34.53,34.53,0,0,1-12.62-13.69,42.06,42.06,0,0,1-4.63-19.93,40.54,40.54,0,0,1,4.63-19.67,33.56,33.56,0,0,1,12.62-13.22,34.69,34.69,0,0,1,17.92-4.7A30.25,30.25,0,0,1,424.12,461.29Zm-26.57,9.4a23.76,23.76,0,0,0-9.13,9.33A29,29,0,0,0,385,494.45a30.51,30.51,0,0,0,3.43,14.7,25.18,25.18,0,0,0,9.13,9.86,23.06,23.06,0,0,0,12.28,3.49,24.06,24.06,0,0,0,12.42-3.35,24.55,24.55,0,0,0,9.12-9.6,32.64,32.64,0,0,0,0-29.13,24.55,24.55,0,0,0-9.12-9.6,24.16,24.16,0,0,0-12.42-3.35A24.52,24.52,0,0,0,397.55,470.69Z"/><path class="cls-2" d="M514.06,461.29a29,29,0,0,1,10.68,11.55V432.43h12.35v99.34H524.74v-15a29.35,29.35,0,0,1-10.68,11.75A29.86,29.86,0,0,1,497.62,533a33.55,33.55,0,0,1-17.92-4.9,34.53,34.53,0,0,1-12.62-13.69,42.06,42.06,0,0,1-4.63-19.93,40.54,40.54,0,0,1,4.63-19.67,33.56,33.56,0,0,1,12.62-13.22,34.69,34.69,0,0,1,17.92-4.7A30.25,30.25,0,0,1,514.06,461.29Zm-26.57,9.4a23.76,23.76,0,0,0-9.13,9.33,29,29,0,0,0-3.43,14.43,30.51,30.51,0,0,0,3.43,14.7,25.18,25.18,0,0,0,9.13,9.86,23.06,23.06,0,0,0,12.28,3.49,24.06,24.06,0,0,0,12.42-3.35,24.55,24.55,0,0,0,9.12-9.6,32.64,32.64,0,0,0,0-29.13,24.55,24.55,0,0,0-9.12-9.6,24.16,24.16,0,0,0-12.42-3.35A24.52,24.52,0,0,0,487.49,470.69Z"/><path class="cls-2" d="M654.68,438.74v9.8H630.11v83.23H617.9V448.54H593.33v-9.8Z"/><path class="cls-2" d="M722.06,461.56A34.14,34.14,0,0,1,735.42,475a40.13,40.13,0,0,1,4.9,20,38.26,38.26,0,0,1-5.1,19.8,35.55,35.55,0,0,1-13.83,13.43A39.63,39.63,0,0,1,702.06,533a36.92,36.92,0,0,1-18.59-4.69,32.93,32.93,0,0,1-12.89-13.36A41.71,41.71,0,0,1,666,495a40,40,0,0,1,4.9-20.06,34.19,34.19,0,0,1,13.36-13.36,40.45,40.45,0,0,1,37.85,0Zm-31.54,8.59a23.06,23.06,0,0,0-8.79,9.53,32.69,32.69,0,0,0-3.29,15.3,33.62,33.62,0,0,0,3.15,15.17,22.44,22.44,0,0,0,8.52,9.53,22.79,22.79,0,0,0,11.95,3.23,25,25,0,0,0,22-12.89,29.77,29.77,0,0,0,3.62-15,31.8,31.8,0,0,0-3.42-15.23,23.42,23.42,0,0,0-9.13-9.6,24.79,24.79,0,0,0-12.42-3.22A23.71,23.71,0,0,0,690.52,470.15Z"/><path class="cls-2" d="M842.67,461.29a29,29,0,0,1,10.68,11.55V458.07H865.7v73.7H853.35v-15a29.35,29.35,0,0,1-10.68,11.75A29.86,29.86,0,0,1,826.23,533a33.55,33.55,0,0,1-17.92-4.9,34.53,34.53,0,0,1-12.62-13.69,42.06,42.06,0,0,1-4.63-19.93,40.54,40.54,0,0,1,4.63-19.67,33.56,33.56,0,0,1,12.62-13.22,34.69,34.69,0,0,1,17.92-4.7A30.25,30.25,0,0,1,842.67,461.29Zm-26.57,9.4A23.76,23.76,0,0,0,807,480a29.06,29.06,0,0,0-3.43,14.43,30.62,30.62,0,0,0,3.43,14.7A25.18,25.18,0,0,0,816.1,519a23.06,23.06,0,0,0,12.28,3.49,24.06,24.06,0,0,0,12.42-3.35,24.55,24.55,0,0,0,9.12-9.6,32.64,32.64,0,0,0,0-29.13,24.55,24.55,0,0,0-9.12-9.6,24.16,24.16,0,0,0-12.42-3.35A24.52,24.52,0,0,0,816.1,470.69Z"/><path class="cls-2" d="M304.77,559.35v87.22H287.28v-55.1l-23.74,55.1H250.92L227.3,591.71v54.86H209.68V559.35H229.3l28,64.6,28-64.6Z"/><rect class="cls-2" x="323.52" y="577.35" width="17.62" height="69.23"/><path class="cls-2" d="M377.5,554.1v92.47H359.88V554.1Z"/><path class="cls-2" d="M413.86,554.1v92.47H396.24V554.1Z"/><rect class="cls-2" x="432.6" y="577.35" width="17.62" height="69.23"/><path class="cls-2" d="M517.94,580.72a32.65,32.65,0,0,1,12.87,12.43,39.24,39.24,0,0,1,0,37.43,32.77,32.77,0,0,1-12.93,12.55,37.52,37.52,0,0,1-18.18,4.44,36.87,36.87,0,0,1-18-4.44,32.47,32.47,0,0,1-12.81-12.55,36.81,36.81,0,0,1-4.69-18.75A36.09,36.09,0,0,1,469,593.15a32.78,32.78,0,0,1,12.87-12.43,39.48,39.48,0,0,1,36.11,0ZM487.2,596.59Q482.09,602,482.08,612a24.45,24.45,0,0,0,2.44,11.43,16.68,16.68,0,0,0,6.43,7,17.53,17.53,0,0,0,17.5-.06,17.68,17.68,0,0,0,6.68-7.06A23.28,23.28,0,0,0,517.69,612a24,24,0,0,0-2.5-11.44,16.91,16.91,0,0,0-6.56-7,17.49,17.49,0,0,0-8.81-2.31A16.77,16.77,0,0,0,487.2,596.59Z"/><path class="cls-2" d="M602.48,579.78A24.26,24.26,0,0,1,612,589.9a34,34,0,0,1,3.49,15.93v40.74H598V608.33q0-8.12-4.12-12.43t-11.25-4.31q-7.12,0-11.31,4.31t-4.18,12.43v38.24H549.56V577.35h17.62v10.37a22,22,0,0,1,8.8-8.44,26.87,26.87,0,0,1,12.69-2.93A27.55,27.55,0,0,1,602.48,579.78Z"/><path class="cls-2" d="M674,579.47a24.87,24.87,0,0,1,9.25,8.62V577.35h17.49v69.22H683.26V635A27.1,27.1,0,0,1,674,644.2a25.08,25.08,0,0,1-13.06,3.37A30,30,0,0,1,644.71,643a32.63,32.63,0,0,1-11.62-12.68,41.71,41.71,0,0,1,0-36.93,32.28,32.28,0,0,1,11.62-12.56,30.34,30.34,0,0,1,16.18-4.49A27,27,0,0,1,674,579.47ZM656.08,594a18.25,18.25,0,0,0-6.81,6.94,21.57,21.57,0,0,0-2.62,10.93,22.26,22.26,0,0,0,2.62,11.06,17.9,17.9,0,0,0,6.81,7.06,17.54,17.54,0,0,0,8.81,2.38,17.73,17.73,0,0,0,8.93-2.38,18,18,0,0,0,6.82-7,24.38,24.38,0,0,0,0-22,18.09,18.09,0,0,0-6.82-7,17.82,17.82,0,0,0-8.93-2.37A17.63,17.63,0,0,0,656.08,594Z"/><rect class="cls-2" x="719.5" y="577.35" width="17.62" height="69.23"/><path class="cls-2" d="M781.91,579.84a20.63,20.63,0,0,1,11.81-3.49v18h-4.37q-7.87,0-11.87,3.94t-4,13.55v34.74H755.86V577.35h17.62v12.24A25.86,25.86,0,0,1,781.91,579.84Z"/><path class="cls-2" d="M869.82,617.71H819.34a16.45,16.45,0,0,0,5,10.87,15.58,15.58,0,0,0,11.13,4.12A13.94,13.94,0,0,0,849,625.2h19a30.35,30.35,0,0,1-11.63,16.12q-8.61,6.25-20.86,6.25a34.76,34.76,0,0,1-17.62-4.44,31.15,31.15,0,0,1-12.12-12.49,42.43,42.43,0,0,1,0-37.55,30.79,30.79,0,0,1,12.18-12.37,35.75,35.75,0,0,1,17.81-4.37,36.65,36.65,0,0,1,17.8,4.24,31.23,31.23,0,0,1,12.31,12.06,36,36,0,0,1,4.5,18.31A43.13,43.13,0,0,1,869.82,617.71Zm-17.74-11.37a15.15,15.15,0,0,0-5.06-11,16.88,16.88,0,0,0-11.56-4.12,15.28,15.28,0,0,0-10.81,4.12,17.45,17.45,0,0,0-5.31,11Z"/><path class="cls-2" d="M346.51,562.55l-14.18-14.19-7.77,7.77h0l-2,2-4.41,4.41a2.78,2.78,0,0,0,0,3.94l4.6,4.6,2-2,7.62-7.62,3.21,3.21,1.19,1.19h0l2,2h0l1.19,1.2,2,2,4.59-4.59A2.79,2.79,0,0,0,346.51,562.55Z"/><path class="cls-2" d="M455.6,562.55l-14.19-14.19-7.76,7.77h0l-2,2-4.41,4.41a2.78,2.78,0,0,0,0,3.94l4.6,4.6,2-2,7.62-7.62,3.21,3.21,1.19,1.19h0l2,2h0l1.2,1.2,2,2,4.6-4.59A2.79,2.79,0,0,0,455.6,562.55Z"/><path class="cls-2" d="M742.49,562.55l-14.18-14.19-7.77,7.77h0l-2,2-4.41,4.41a2.78,2.78,0,0,0,0,3.94l4.6,4.6,2-2,7.61-7.62,3.22,3.21,1.19,1.19h0l2,2h0l1.19,1.2,2,2,4.59-4.59A2.79,2.79,0,0,0,742.49,562.55Z"/></svg>