<svg xmlns="http://www.w3.org/2000/svg" viewBox="0 0 660.64 215.14"><g id="Layer_2" data-name="Layer 2"><g id="Layer_1-2" data-name="Layer 1"><path d="M48.59,99.34,24.16,60.94H12.22v38.4H0v-93H30.2q10.47,0,17.72,3.56a24.76,24.76,0,0,1,10.88,9.8,27.45,27.45,0,0,1,3.62,14,26.71,26.71,0,0,1-6,17.46q-6,7.38-18.12,9.26L63.9,99.34ZM12.22,51.28h18q10.08,0,15-4.63t4.9-13q0-8.31-4.83-12.95t-15-4.63h-18Z"/><path d="M134.1,29.13a34.14,34.14,0,0,1,13.36,13.42,40.14,40.14,0,0,1,4.9,20,38.31,38.31,0,0,1-5.1,19.8,35.59,35.59,0,0,1-13.83,13.42,39.64,39.64,0,0,1-19.33,4.77,36.93,36.93,0,0,1-18.59-4.7A32.93,32.93,0,0,1,82.62,82.49,41.7,41.7,0,0,1,78,62.56a40,40,0,0,1,4.9-20.07A34.19,34.19,0,0,1,96.25,29.13a40.45,40.45,0,0,1,37.85,0Zm-31.54,8.59a23.15,23.15,0,0,0-8.8,9.53,32.83,32.83,0,0,0-3.28,15.31,33.61,33.61,0,0,0,3.15,15.16,22.47,22.47,0,0,0,8.52,9.54,22.87,22.87,0,0,0,11.95,3.22,25,25,0,0,0,22-12.89,29.76,29.76,0,0,0,3.62-15,31.82,31.82,0,0,0-3.42-15.24,23.42,23.42,0,0,0-9.13-9.6,24.79,24.79,0,0,0-12.42-3.22A23.71,23.71,0,0,0,102.56,37.72Z"/><path d="M214.44,28.86a29,29,0,0,1,10.68,11.55V25.64h12.35v73.7H225.12v-15a29.35,29.35,0,0,1-10.68,11.75,29.89,29.89,0,0,1-16.44,4.5,33.63,33.63,0,0,1-17.92-4.9A34.56,34.56,0,0,1,167.46,82,42.06,42.06,0,0,1,162.83,62a40.54,40.54,0,0,1,4.63-19.67,33.56,33.56,0,0,1,12.62-13.22A34.69,34.69,0,0,1,198,24.43,30.27,30.27,0,0,1,214.44,28.86Zm-26.58,9.4a23.81,23.81,0,0,0-9.12,9.33A29,29,0,0,0,175.31,62a30.51,30.51,0,0,0,3.43,14.7,25.23,25.23,0,0,0,9.12,9.86,23.12,23.12,0,0,0,12.29,3.49,24,24,0,0,0,12.41-3.35,24.51,24.51,0,0,0,9.13-9.6,29.81,29.81,0,0,0,3.43-14.56A29.85,29.85,0,0,0,221.69,48a24.51,24.51,0,0,0-9.13-9.6A24.1,24.1,0,0,0,200.15,35,24.58,24.58,0,0,0,187.86,38.26Z"/><path d="M304.38,28.86a28.93,28.93,0,0,1,10.67,11.55V0h12.36V99.34H315.05v-15a29.25,29.25,0,0,1-10.67,11.75,29.89,29.89,0,0,1-16.44,4.5A33.61,33.61,0,0,1,270,95.65,34.56,34.56,0,0,1,257.4,82,42.06,42.06,0,0,1,252.77,62a40.54,40.54,0,0,1,4.63-19.67A33.56,33.56,0,0,1,270,29.13a34.67,34.67,0,0,1,17.92-4.7A30.27,30.27,0,0,1,304.38,28.86Zm-26.58,9.4a23.81,23.81,0,0,0-9.12,9.33A29,29,0,0,0,265.25,62a30.51,30.51,0,0,0,3.43,14.7,25.23,25.23,0,0,0,9.12,9.86,23.12,23.12,0,0,0,12.29,3.49,24,24,0,0,0,12.41-3.35,24.51,24.51,0,0,0,9.13-9.6,29.81,29.81,0,0,0,3.42-14.56A29.85,29.85,0,0,0,311.63,48a24.51,24.51,0,0,0-9.13-9.6A24.1,24.1,0,0,0,290.09,35,24.58,24.58,0,0,0,277.8,38.26Z"/><path d="M445,6.31v9.8H420.43V99.34H408.22V16.11H383.65V6.31Z"/><path d="M512.38,29.13a34.14,34.14,0,0,1,13.36,13.42,40.14,40.14,0,0,1,4.9,20,38.31,38.31,0,0,1-5.1,19.8,35.59,35.59,0,0,1-13.83,13.42,39.64,39.64,0,0,1-19.33,4.77,36.93,36.93,0,0,1-18.59-4.7A32.93,32.93,0,0,1,460.9,82.49a41.7,41.7,0,0,1-4.63-19.93,40,40,0,0,1,4.9-20.07,34.19,34.19,0,0,1,13.36-13.36,40.45,40.45,0,0,1,37.85,0Zm-31.54,8.59a23.15,23.15,0,0,0-8.8,9.53,32.82,32.82,0,0,0-3.29,15.31,33.6,33.6,0,0,0,3.16,15.16,22.47,22.47,0,0,0,8.52,9.54,22.87,22.87,0,0,0,11.95,3.22,25,25,0,0,0,22-12.89,29.76,29.76,0,0,0,3.62-15,31.82,31.82,0,0,0-3.42-15.24,23.42,23.42,0,0,0-9.13-9.6,24.82,24.82,0,0,0-12.42-3.22A23.71,23.71,0,0,0,480.84,37.72Z"/><path d="M633,28.86a29,29,0,0,1,10.68,11.55V25.64H656v73.7H643.67v-15A29.35,29.35,0,0,1,633,96.05a29.89,29.89,0,0,1-16.44,4.5,33.63,33.63,0,0,1-17.92-4.9A34.56,34.56,0,0,1,586,82,42.06,42.06,0,0,1,581.38,62,40.54,40.54,0,0,1,586,42.35a33.56,33.56,0,0,1,12.62-13.22,34.69,34.69,0,0,1,17.92-4.7A30.27,30.27,0,0,1,633,28.86Zm-26.58,9.4a23.81,23.81,0,0,0-9.12,9.33A29,29,0,0,0,593.86,62a30.51,30.51,0,0,0,3.43,14.7,25.23,25.23,0,0,0,9.12,9.86,23.12,23.12,0,0,0,12.29,3.49,24,24,0,0,0,12.41-3.35,24.51,24.51,0,0,0,9.13-9.6,29.7,29.7,0,0,0,3.43-14.56A29.74,29.74,0,0,0,640.24,48a24.51,24.51,0,0,0-9.13-9.6A24.1,24.1,0,0,0,618.7,35,24.58,24.58,0,0,0,606.41,38.26Z"/><path d="M95.09,126.92v87.22H77.6V159l-23.74,55.1H41.24L17.62,159.29v54.85H0V126.92H19.62l28,64.6,28-64.6Z"/><rect x="113.84" y="144.92" width="17.62" height="69.23"/><path d="M167.82,121.67v92.47H150.2V121.67Z"/><path d="M204.18,121.67v92.47H186.56V121.67Z"/><rect x="222.92" y="144.92" width="17.62" height="69.23"/><path d="M308.26,148.29a32.65,32.65,0,0,1,12.87,12.43,39.24,39.24,0,0,1,0,37.43,32.87,32.87,0,0,1-12.93,12.56A37.63,37.63,0,0,1,290,215.14a37,37,0,0,1-18-4.43,32.6,32.6,0,0,1-12.8-12.56,36.79,36.79,0,0,1-4.69-18.75,36.11,36.11,0,0,1,4.75-18.68,32.65,32.65,0,0,1,12.87-12.43,39.48,39.48,0,0,1,36.11,0Zm-30.74,15.87q-5.11,5.37-5.12,15.37A24.45,24.45,0,0,0,274.84,191a16.61,16.61,0,0,0,6.43,7,17.53,17.53,0,0,0,17.5-.06,17.75,17.75,0,0,0,6.68-7.06A23.28,23.28,0,0,0,308,179.53a24,24,0,0,0-2.5-11.43,16.88,16.88,0,0,0-6.56-7,17.51,17.51,0,0,0-8.81-2.31A16.77,16.77,0,0,0,277.52,164.16Z"/><path d="M392.79,147.35a24.2,24.2,0,0,1,9.56,10.12,34,34,0,0,1,3.5,15.94v40.73H388.36V175.9q0-8.11-4.12-12.43T373,159.16q-7.12,0-11.31,4.31t-4.19,12.43v38.24H339.87V144.92h17.62v10.37a22.07,22.07,0,0,1,8.81-8.44A26.87,26.87,0,0,1,379,143.92,27.49,27.49,0,0,1,392.79,147.35Z"/><path d="M464.33,147a24.87,24.87,0,0,1,9.25,8.62V144.92h17.49v69.22H473.58V202.52a27.1,27.1,0,0,1-9.31,9.25,25.11,25.11,0,0,1-13.06,3.37A29.94,29.94,0,0,1,435,210.58a32.63,32.63,0,0,1-11.62-12.68,41.71,41.71,0,0,1,0-36.93A32.28,32.28,0,0,1,435,148.41a30.31,30.31,0,0,1,16.18-4.49A27.07,27.07,0,0,1,464.33,147Zm-17.93,14.5a18.15,18.15,0,0,0-6.81,6.93A21.57,21.57,0,0,0,437,179.4a22.26,22.26,0,0,0,2.63,11.06,17.9,17.9,0,0,0,6.81,7.06,17.54,17.54,0,0,0,8.81,2.38,17.75,17.75,0,0,0,8.93-2.38,18,18,0,0,0,6.81-7,24.32,24.32,0,0,0,0-22,18,18,0,0,0-6.81-7,17.75,17.75,0,0,0-8.93-2.38A17.54,17.54,0,0,0,446.4,161.54Z"/><rect x="509.82" y="144.92" width="17.62" height="69.23"/><path d="M572.23,147.42a20.57,20.57,0,0,1,11.81-3.5v18h-4.38q-7.86,0-11.87,3.94t-4,13.55v34.74H546.18V144.92H563.8v12.24A25.75,25.75,0,0,1,572.23,147.42Z"/><path d="M660.14,185.28H609.66a16.43,16.43,0,0,0,5,10.87,15.58,15.58,0,0,0,11.12,4.12,13.94,13.94,0,0,0,13.5-7.5h19a30.33,30.33,0,0,1-11.62,16.12q-8.62,6.26-20.87,6.25a34.85,34.85,0,0,1-17.61-4.43A31.24,31.24,0,0,1,596,198.21a38.77,38.77,0,0,1-4.38-18.81A38.41,38.41,0,0,1,596,160.66a30.79,30.79,0,0,1,12.18-12.37,35.84,35.84,0,0,1,17.8-4.37,36.69,36.69,0,0,1,17.81,4.24,31.23,31.23,0,0,1,12.31,12.06,36,36,0,0,1,4.5,18.31A43.13,43.13,0,0,1,660.14,185.28Zm-17.75-11.37a15.08,15.08,0,0,0-5.06-11,16.85,16.85,0,0,0-11.56-4.12,15.27,15.27,0,0,0-10.8,4.12,17.45,17.45,0,0,0-5.31,11Z"/><path d="M136.83,130.12l-14.18-14.19-7.77,7.77h0l-2,2-4.41,4.41a2.78,2.78,0,0,0,0,3.94l4.6,4.6,2-2,7.61-7.62,3.22,3.21,1.19,1.2h0l2,2h0l1.19,1.2,2,2,4.59-4.59A2.79,2.79,0,0,0,136.83,130.12Z"/><path d="M245.91,130.12l-14.18-14.19L224,123.7h0l-2,2-4.41,4.41a2.78,2.78,0,0,0,0,3.94l4.6,4.6,2-2,7.62-7.62,3.21,3.21,1.19,1.2h0l2,2h0l1.2,1.2,2,2,4.59-4.59A2.79,2.79,0,0,0,245.91,130.12Z"/><path d="M532.81,130.12l-14.19-14.19-7.76,7.77h0l-2,2-4.4,4.41a2.78,2.78,0,0,0,0,3.94l4.59,4.6,2-2,7.62-7.62,3.21,3.21,1.2,1.2h0l2,2h0l1.19,1.2,2,2,4.59-4.59A2.79,2.79,0,0,0,532.81,130.12Z"/></g></g></svg>